<svg id="구성_요소_13_1" data-name="구성 요소 13 – 1" xmlns="http://www.w3.org/2000/svg" width="91.599" height="54" viewBox="0 0 91.599 54">
  <text id="view" transform="translate(38.58 10.017)" fill="#b3b3b3" font-size="10" font-family="CopperplateGothic-Bold, Copperplate Gothic Bold" font-weight="700" letter-spacing="-0.025em"><tspan x="0" y="9">view</tspan></text>
  <rect id="_분할_영역_" data-name="&lt;분할 영역&gt;" width="79" height="54" fill="none"/>
  <path id="패스_154" data-name="패스 154" d="M18.016,66.515V56.775a.516.516,0,0,0-.139-.387,1.084,1.084,0,0,0-.5-.219V55.9h4.234v.27a1,1,0,0,0-.5.215.53.53,0,0,0-.139.391v9.741a.531.531,0,0,0,.144.4,1.024,1.024,0,0,0,.492.214V67.4H17.38v-.269a1.084,1.084,0,0,0,.5-.219A.526.526,0,0,0,18.016,66.515Z" transform="translate(-10.557 -30.21)" fill="#8bc34a"/>
  <g id="그룹_71" data-name="그룹 71" transform="translate(22.306 22.652)">
    <path id="패스_155" data-name="패스 155" d="M47.814,66.628H44.526l-2.838-5.8H39.646v5.8H36.807V52.088h5.7a4.7,4.7,0,0,1,3.472,1.306,4.263,4.263,0,0,1,1.245,3.143,3.936,3.936,0,0,1-2.655,3.817Zm-3.431-10.1a1.8,1.8,0,0,0-.562-1.391,2.125,2.125,0,0,0-1.5-.518H39.646v3.818H42.32a2.108,2.108,0,0,0,1.49-.528A1.792,1.792,0,0,0,44.383,56.53Z" transform="translate(-36.807 -52.088)" fill="#8bc34a"/>
    <path id="패스_156" data-name="패스 156" d="M60.3,67.59H57.7v-.919a3.5,3.5,0,0,1-1.124.786,3.98,3.98,0,0,1-1.49.235,3.6,3.6,0,0,1-2.686-.929,3.287,3.287,0,0,1-.909-2.4,2.842,2.842,0,0,1,.878-2.185,3.888,3.888,0,0,1,2.757-.9h2.512v-.531a1.605,1.605,0,0,0-.46-1.277,2.321,2.321,0,0,0-1.521-.4,2.986,2.986,0,0,0-1.184.184,2.656,2.656,0,0,0-.858.694l-1.7-1.655a4.325,4.325,0,0,1,1.614-1.153,6.426,6.426,0,0,1,2.226-.317q4.532,0,4.533,3.758Zm-2.655-3.921V63.1h-2.1q-1.491,0-1.491,1.206,0,1.224,1.532,1.225a4.031,4.031,0,0,0,.98-.092A1.708,1.708,0,0,0,57.275,65,1.816,1.816,0,0,0,57.643,63.669Z" transform="translate(-39.789 -53.05)" fill="#8bc34a"/>
    <path id="패스_157" data-name="패스 157" d="M74.187,62.26a15.437,15.437,0,0,1-.143,2.43,3.689,3.689,0,0,1-.939,2.063,3.5,3.5,0,0,1-2.593.96,3.949,3.949,0,0,1-1.45-.234,3.036,3.036,0,0,1-1.124-.827V71.49H65.283V56.951h2.573v1a3.42,3.42,0,0,1,2.655-1.124,3.505,3.505,0,0,1,2.593.96,3.393,3.393,0,0,1,.807,1.49A11.719,11.719,0,0,1,74.187,62.26Zm-2.655,0a5.757,5.757,0,0,0-.286-2.165,1.514,1.514,0,0,0-1.511-.878,1.479,1.479,0,0,0-1.49.858,5.584,5.584,0,0,0-.307,2.185,5.849,5.849,0,0,0,.286,2.185,1.723,1.723,0,0,0,3,0A5.68,5.68,0,0,0,71.532,62.26Z" transform="translate(-42.588 -53.05)" fill="#8bc34a"/>
    <path id="패스_158" data-name="패스 158" d="M87.649,66.628H84.995V60.134a1.864,1.864,0,0,0-.551-1.47,1.739,1.739,0,0,0-1.184-.409,1.66,1.66,0,0,0-1.164.409,1.866,1.866,0,0,0-.552,1.47v6.494H78.889V52.088h2.655v4.881a3.461,3.461,0,0,1,2.553-1.1,3.3,3.3,0,0,1,2.634,1.062,4.154,4.154,0,0,1,.919,2.818Z" transform="translate(-45.351 -52.088)" fill="#8bc34a"/>
    <path id="패스_159" data-name="패스 159" d="M100.524,67.59H97.931v-.919a3.485,3.485,0,0,1-1.123.786,3.983,3.983,0,0,1-1.49.235,3.6,3.6,0,0,1-2.686-.929,3.287,3.287,0,0,1-.909-2.4,2.842,2.842,0,0,1,.878-2.185,3.885,3.885,0,0,1,2.757-.9H97.87v-.531a1.608,1.608,0,0,0-.46-1.277,2.323,2.323,0,0,0-1.521-.4,2.986,2.986,0,0,0-1.184.184,2.656,2.656,0,0,0-.858.694l-1.7-1.655a4.329,4.329,0,0,1,1.613-1.153,6.429,6.429,0,0,1,2.226-.317q4.533,0,4.533,3.758ZM97.87,63.669V63.1h-2.1q-1.491,0-1.49,1.206,0,1.224,1.532,1.225a4.031,4.031,0,0,0,.98-.092A1.708,1.708,0,0,0,97.5,65,1.816,1.816,0,0,0,97.87,63.669Z" transform="translate(-47.956 -53.05)" fill="#8bc34a"/>
  </g>
  <rect id="사각형_147" data-name="사각형 147" width="6.006" height="2.252" transform="translate(13.145 30.766)" fill="#8bc34a"/>
  <g id="그룹_72" data-name="그룹 72" transform="translate(64.255 13.018)">
    <path id="패스_160" data-name="패스 160" d="M91.986,50.96l8.8-9.479,12.906.132-1.064,1.139-10.461-.029-.007,1.253L111.04,44,109.582,45.5l-7.382.215-.07,1.459h5.808l-1.41.8h-7.9l2.715-3.107-1.8.035L95.633,49.31l11.444.088,2.506-2.671.862,0,2.3-2.671.918-.026L116.787,40H99.638l-10.2,10.811Z" transform="translate(-89.443 -40)" fill="#7cb342"/>
  </g>
</svg>
