<?xml version="1.0" encoding="utf-8"?>
<!-- Generator: Adobe Illustrator 15.0.0, SVG Export Plug-In . SVG Version: 6.00 Build 0)  -->
<!DOCTYPE svg PUBLIC "-//W3C//DTD SVG 1.1//EN" "http://www.w3.org/Graphics/SVG/1.1/DTD/svg11.dtd">
<svg version="1.1" id="Layer_1" xmlns="http://www.w3.org/2000/svg" xmlns:xlink="http://www.w3.org/1999/xlink" x="0px" y="0px"
	 width="512px" height="512px" viewBox="0 0 512 512" enable-background="new 0 0 512 512" xml:space="preserve">
<g id="Layouts">
	<path fill="#5A963C" d="M190.152,400.111c-7.392-6.43-4.732-22.176,6.209-35.182l150.857-177.912
		C318.642,93.307,219.51,40.504,125.798,69.08C32.089,97.654-20.715,196.787,7.86,290.498
		C30.651,365.241,99.668,416.27,177.808,416.15c9.51-0.065,19-0.883,28.384-2.439L190.152,400.111z"/>
	<path fill="#5A963C" d="M419.579,149.102l-179.61,211.91c-11.012,12.936-13.822,28.752-6.209,35.184l54.993,46.639
		c7.392,6.431,22.765,1.108,33.777-11.899L501.845,219.1c11.014-13.01,13.747-28.827,6.209-35.256l-55.064-46.639
		C445.744,130.771,430.592,136.167,419.579,149.102z M488.393,207.418l-179.685,211.91l-54.991-46.714l19.956-23.505l27.496,23.283
		l19.956-23.283l-27.496-23.355l19.957-23.505l27.495,23.284l20.327-23.727l-27.495-23.357l19.956-23.505l27.495,23.285
		l19.957-23.506l-27.497-23.356l19.957-23.505l27.127,22.988l20.031-23.505l-27.792-23.062l19.956-23.505L488.393,207.418z"/>
</g>
</svg>
