<?xml version="1.0" encoding="utf-8"?>
<!-- Generator: Adobe Illustrator 15.0.0, SVG Export Plug-In . SVG Version: 6.00 Build 0)  -->
<!DOCTYPE svg PUBLIC "-//W3C//DTD SVG 1.1//EN" "http://www.w3.org/Graphics/SVG/1.1/DTD/svg11.dtd">
<svg version="1.1" id="Layer_1" xmlns="http://www.w3.org/2000/svg" xmlns:xlink="http://www.w3.org/1999/xlink" x="0px" y="0px"
	 width="512px" height="512px" viewBox="0 0 512 512" enable-background="new 0 0 512 512" xml:space="preserve">
<g id="Layouts">
	<path fill="#5B9741" d="M257.545,130.071c64.156,0.035,116.155,52.035,116.19,116.19c0.043,14.583-2.756,29.033-8.24,42.543
		l67.771,67.708c35.396-29.471,62.79-67.389,79.654-110.251C471.65,141.191,370.299,72.069,257.416,72.008
		c-31.56-0.014-62.882,5.477-92.557,16.223l50.207,50.208C228.557,132.947,242.979,130.106,257.545,130.071z M25.164,66.643
		l53.017,53.017l10.668,10.667c-38.834,30.166-68.858,70.205-86.937,115.934c55.377,141.226,214.754,210.821,355.98,155.444
		c0.404-0.157,0.811-0.319,1.215-0.483l9.772,9.775l68.283,67.644l29.511-29.512L54.675,37.132L25.164,66.643z M153.682,195.162
		l36.027,36.025c-1.197,4.936-1.82,9.995-1.853,15.074c-0.07,38.453,31.044,69.682,69.497,69.753c0.063,0,0.127,0,0.191,0
		c5.1-0.037,10.18-0.659,15.138-1.853l36.026,35.962c-15.846,8.018-33.342,12.238-51.101,12.326
		c-63.746,0.451-115.785-50.859-116.235-114.606C141.245,229.557,145.464,211.499,153.682,195.162z M253.839,177.021l73.33,73.203
		l0.447-3.705c0.07-38.453-31.044-69.682-69.496-69.754c-0.107,0-0.214,0-0.319,0L253.839,177.021z"/>
</g>
</svg>
