<?xml version="1.0" encoding="utf-8"?>
<!-- Generator: Adobe Illustrator 15.0.0, SVG Export Plug-In . SVG Version: 6.00 Build 0)  -->
<!DOCTYPE svg PUBLIC "-//W3C//DTD SVG 1.1//EN" "http://www.w3.org/Graphics/SVG/1.1/DTD/svg11.dtd">
<svg version="1.1" id="Layer_1" xmlns="http://www.w3.org/2000/svg" xmlns:xlink="http://www.w3.org/1999/xlink" x="0px" y="0px"
	 width="512px" height="512px" viewBox="0 0 512 512" enable-background="new 0 0 512 512" xml:space="preserve">
<g id="Layouts">
	<path fill="#5B9741" d="M255.924,78.649C142.804,78.7,41.23,147.948-0.15,253.229c55.792,141.425,215.669,210.846,357.095,155.055
		c70.929-27.98,127.074-84.128,155.056-155.055C470.62,147.949,369.045,78.7,255.924,78.649z M255.924,369.678
		c-64.313,0.105-116.536-51.945-116.641-116.257c-0.106-64.313,51.945-116.536,116.256-116.642
		c64.314-0.106,116.537,51.944,116.643,116.258c0,0.065,0,0.128,0,0.193c0.142,64.312-51.88,116.567-116.193,116.707
		c-0.021,0-0.042,0-0.064,0V369.678L255.924,369.678z M255.924,183.448c-38.573,0-69.844,31.27-69.844,69.844
		c0,38.575,31.271,69.845,69.844,69.845s69.845-31.271,69.845-69.845c0-0.022,0-0.043,0-0.063
		c0.035-38.504-31.149-69.746-69.65-69.781C256.053,183.447,255.989,183.447,255.924,183.448z"/>
</g>
</svg>
